<svg xmlns="http://www.w3.org/2000/svg" viewBox="0 0 120 120" width="120" height="120">
  <rect x="15" y="15" width="90" height="90" rx="20" fill="rgba(245, 158, 11, 0.1)" stroke="#fbbf24" stroke-width="2" />
  <g transform="translate(38, 38)">
    <path d="M5 25 C5 35, 10 40, 20 40 L25 40 C35 40, 40 35, 40 25 L40 10 L5 10 Z" fill="#b45309" stroke="#ffffff" stroke-width="3" />
    <path d="M40 15 C46 15, 48 20, 48 23 C48 27, 44 29, 40 29" fill="none" stroke="#ffffff" stroke-width="3" stroke-linecap="round" />
    <path d="M15 5 Q17 0, 15 -5" fill="none" stroke="#fbbf24" stroke-width="2" stroke-linecap="round" />
    <path d="M23 5 Q25 0, 23 -5" fill="none" stroke="#fbbf24" stroke-width="2" stroke-linecap="round" />
    <path d="M31 5 Q33 0, 31 -5" fill="none" stroke="#fbbf24" stroke-width="2" stroke-linecap="round" />
    <rect x="2" y="40" width="41" height="4" rx="2" fill="#ffffff" />
  </g>
</svg>
